<?xml version="1.0" encoding="UTF-8"?>
<!DOCTYPE svg  PUBLIC '-//W3C//DTD SVG 1.1//EN'  'http://www.w3.org/Graphics/SVG/1.1/DTD/svg11.dtd'>
<svg clip-rule="evenodd" fill-rule="evenodd" stroke-linejoin="round" stroke-miterlimit="2" version="1.1" viewBox="0 0 40 40" xmlSpace="preserve" xmlns="http://www.w3.org/2000/svg" xmlnsSerif="http://www.serif.com/" xmlnsXlink="http://www.w3.org/1999/xlink">
<g transform="translate(-1081.8 -481.19)">
<g transform="matrix(1.0443 0 0 1.0443 -4.9983 -9.0762)">
<rect x="1040.7" y="469.48" width="38.304" height="38.304" fill="none"/>
</g>
<g transform="matrix(.045344 0 0 .045344 1089.6 489.18)">
<path d="m289.52 485.49c-3e-3 11.866-9.622 21.483-21.488 21.483-11.865 0-21.485-9.617-21.488-21.483-2e-3 -9.18-4e-3 -17.823-4e-3 -17.823-48.577-5.242-89.727-24.725-123.45-58.449s-53.033-74.7-57.925-122.93c0 0-8.645-1e-3 -17.827-3e-3 -11.865-2e-3 -21.484-9.62-21.486-21.486v-2e-3c-1e-3 -5.701 2.263-11.168 6.293-15.199 4.031-4.031 9.497-6.295 15.198-6.295h17.822c5.242-48.576 24.725-89.727 58.449-123.45s74.699-53.032 122.93-57.925c0 0-1e-3 -8.636-1e-3 -17.812 0-11.866 9.617-21.487 21.483-21.492 5.702-3e-3 11.17 2.261 15.203 6.291 4.032 4.03 6.298 9.498 6.298 15.199 1e-3 9.178 2e-3 17.814 2e-3 17.814 48.227 4.893 89.202 24.201 122.93 57.925s53.207 74.875 58.449 123.45c0 0 8.643 2e-3 17.824 3e-3 11.867 2e-3 21.486 9.622 21.487 21.489 0 11.868-9.62 21.49-21.488 21.491-9.18 1e-3 -17.823 2e-3 -17.823 2e-3 -4.892 48.227-24.201 89.203-57.925 122.93s-74.874 53.207-123.45 58.449c0 0-2e-3 8.643-5e-3 17.823zm-21.488-66.05c42.636 0 79.068-15.115 109.3-45.344 30.23-30.229 45.344-66.662 45.344-109.3 0-42.636-15.114-79.068-45.344-109.3-30.229-30.229-66.661-45.344-109.3-45.344-42.635 0-79.068 15.115-109.3 45.344-30.229 30.23-45.344 66.662-45.344 109.3 0 42.635 15.115 79.068 45.344 109.3s66.662 45.344 109.3 45.344zm0-66.086c-24.795 0-45.754-8.56-62.874-25.681-17.121-17.121-25.681-38.079-25.681-62.874 0-24.796 8.56-45.754 25.681-62.875 17.12-17.121 38.079-25.681 62.874-25.681 24.796 0 45.754 8.56 62.875 25.681 17.12 17.121 25.681 38.079 25.681 62.875 0 24.795-8.561 45.753-25.681 62.874-17.121 17.121-38.079 25.681-62.875 25.681z" fill="#e7e7eb"/>
</g>
</g>
</svg>

